<?xml version="1.0" encoding="utf-8"?>
<!-- Generator: Adobe Illustrator 24.1.3, SVG Export Plug-In . SVG Version: 6.00 Build 0)  -->
<svg version="1.1" id="Capa_1" xmlns="http://www.w3.org/2000/svg" xmlns:xlink="http://www.w3.org/1999/xlink" x="0px" y="0px"
	 viewBox="0 0 470 470" style="enable-background:new 0 0 470 470;" xml:space="preserve">
<style type="text/css">
	.st0{fill:#072233;}
</style>
<g>
	<path class="st0" d="M79.9,339.4c28.2,0,54-16.6,66-41.9h6.4c4.1,0,7.5-3.4,7.5-7.5s-3.4-7.5-7.5-7.5H7.5c-4.1,0-7.5,3.4-7.5,7.5
		s3.4,7.5,7.5,7.5h6.4C25.9,322.8,51.8,339.4,79.9,339.4z M128.8,297.6c-10.5,16.4-29,26.9-48.9,26.9S41.6,314,31,297.6H128.8z"/>
	<path class="st0" d="M462.5,282.6H317.7c-4.1,0-7.5,3.4-7.5,7.5s3.4,7.5,7.5,7.5h6.4c11.9,25.2,37.8,41.9,66,41.9s54-16.6,66-41.9
		h6.4c4.1,0,7.5-3.4,7.5-7.5S466.6,282.6,462.5,282.6z M390.1,324.4c-19.9,0-38.4-10.4-48.9-26.9H439
		C428.4,314,410,324.4,390.1,324.4z"/>
	<path class="st0" d="M422.5,452.4h-38.4c-3.6-21.7-22.5-38.3-45.2-38.3h-4.8c-3.6-21.7-22.5-38.3-45.2-38.3h-46.4V91.9h137.2
		l-57.8,172.8c-1.3,3.9,0.8,8.2,4.7,9.5c3.9,1.3,8.2-0.8,9.5-4.7l54-161.4l54,161.4c1,3.1,4,5.1,7.1,5.1c0.8,0,1.6-0.1,2.4-0.4
		c3.9-1.3,6-5.6,4.7-9.5L400.5,91.9h12.3c4.1,0,7.5-3.4,7.5-7.5s-3.4-7.5-7.5-7.5H242.5V33h36.7c11.8,0,21.4,9.6,21.4,21.4
		c0,4.1,3.4,7.5,7.5,7.5h22.7c4.1,0,7.5-3.4,7.5-7.5s-3.4-7.5-7.5-7.5h-16C311.3,30.4,296.6,18,279.2,18h-36.7v-7.9
		c0-4.1-3.4-7.5-7.5-7.5s-7.5,3.4-7.5,7.5V18h-36.7c-17.5,0-32.1,12.4-35.6,28.9h-16c-4.1,0-7.5,3.4-7.5,7.5s3.4,7.5,7.5,7.5H162
		c4.1,0,7.5-3.4,7.5-7.5c0-11.8,9.6-21.4,21.4-21.4h36.7v43.9H57.2c-4.1,0-7.5,3.4-7.5,7.5s3.4,7.5,7.5,7.5h12.3L11.7,264.7
		c-1.3,3.9,0.8,8.2,4.7,9.5c3.9,1.3,8.2-0.8,9.5-4.7l54-161.4l54,161.4c1,3.1,4,5.1,7.1,5.1c0.8,0,1.6-0.1,2.4-0.4
		c3.9-1.3,6-5.6,4.7-9.5L90.3,91.9h137.2v283.8h-46.4c-22.7,0-41.6,16.6-45.2,38.3h-4.8c-22.7,0-41.6,16.6-45.2,38.3H47.5
		c-4.1,0-7.5,3.4-7.5,7.5s3.4,7.5,7.5,7.5h375c4.1,0,7.5-3.4,7.5-7.5S426.6,452.4,422.5,452.4z M131.1,429h11.7
		c4.1,0,7.5-3.4,7.5-7.5c0-17,13.8-30.8,30.8-30.8h107.8c17,0,30.8,13.8,30.8,30.8c0,4.1,3.4,7.5,7.5,7.5h11.7
		c14.4,0,26.6,9.9,29.9,23.3H101.2C104.5,439,116.7,429,131.1,429z"/>
	<path class="st0" d="M297.3,414H172.7c-4.1,0-7.5,3.4-7.5,7.5s3.4,7.5,7.5,7.5h124.5c4.1,0,7.5-3.4,7.5-7.5S301.4,414,297.3,414z"
		/>
</g>
</svg>
