<?xml version="1.0" encoding="utf-8"?>
<!-- Generator: Adobe Illustrator 24.1.3, SVG Export Plug-In . SVG Version: 6.00 Build 0)  -->
<svg version="1.1" id="Capa_1" xmlns="http://www.w3.org/2000/svg" xmlns:xlink="http://www.w3.org/1999/xlink" x="0px" y="0px"
	 viewBox="0 0 512 512" style="enable-background:new 0 0 512 512;" xml:space="preserve">
<style type="text/css">
	.st0{fill:#072233;}
</style>
<g>
	<path class="st0" d="M371.4,216.3c-58.9,0-106.8,47.9-106.8,106.8s47.9,106.8,106.8,106.8S478.2,381.9,478.2,323
		S430.3,216.3,371.4,216.3z M371.4,414.8c-50.6,0-91.8-41.2-91.8-91.8c0-50.6,41.2-91.8,91.8-91.8s91.8,41.2,91.8,91.8
		C463.2,373.6,422,414.8,371.4,414.8z"/>
	<path class="st0" d="M371.4,261.8c4.1,0,7.5-3.4,7.5-7.5v-3.4c0-4.1-3.4-7.5-7.5-7.5s-7.5,3.4-7.5,7.5v3.4
		C363.9,258.5,367.3,261.8,371.4,261.8z"/>
	<path class="st0" d="M417.1,266.7l-2.4,2.4c-2.9,2.9-2.9,7.7,0,10.6c2.9,2.9,7.7,2.9,10.6,0l2.4-2.4c2.9-2.9,2.9-7.7,0-10.6
		C424.8,263.8,420.1,263.8,417.1,266.7z"/>
	<path class="st0" d="M443.6,315.5h-3.4c-4.1,0-7.5,3.4-7.5,7.5s3.4,7.5,7.5,7.5h3.4c4.1,0,7.5-3.4,7.5-7.5S447.7,315.5,443.6,315.5
		z"/>
	<path class="st0" d="M302.7,315.5h-3.4c-4.1,0-7.5,3.4-7.5,7.5s3.4,7.5,7.5,7.5h3.4c4.1,0,7.5-3.4,7.5-7.5S306.9,315.5,302.7,315.5
		z"/>
	<path class="st0" d="M425.3,366.3c-2.9-2.9-7.7-2.9-10.6,0c-2.9,2.9-2.9,7.7,0,10.6l2.4,2.4c2.9,2.9,7.7,2.9,10.6,0
		c2.9-2.9,2.9-7.7,0-10.6L425.3,366.3z"/>
	<path class="st0" d="M371.4,384.2c-4.1,0-7.5,3.4-7.5,7.5v3.4c0,4.1,3.4,7.5,7.5,7.5s7.5-3.4,7.5-7.5v-3.4
		C378.9,387.6,375.6,384.2,371.4,384.2z"/>
	<path class="st0" d="M317.5,366.3l-2.4,2.4c-2.9,2.9-2.9,7.7,0,10.6c2.9,2.9,7.7,2.9,10.6,0l2.4-2.4c2.9-2.9,2.9-7.7,0-10.6
		C325.2,363.4,320.5,363.4,317.5,366.3z"/>
	<path class="st0" d="M325.7,266.7c-2.9-2.9-7.7-2.9-10.6,0c-2.9,2.9-2.9,7.7,0,10.6l2.4,2.4c2.9,2.9,7.7,2.9,10.6,0
		c2.9-2.9,2.9-7.7,0-10.6L325.7,266.7z"/>
	<path class="st0" d="M391.9,315.5h-12.9v-32.1c0-4.1-3.4-7.5-7.5-7.5s-7.5,3.4-7.5,7.5V323c0,4.1,3.4,7.5,7.5,7.5h20.4
		c4.1,0,7.5-3.4,7.5-7.5S396,315.5,391.9,315.5z"/>
	<path class="st0" d="M483.1,237.8V111.7c0-11.7-9.5-21.3-21.3-21.3h-21.6V69.7c0-11.7-9.5-21.3-21.3-21.3H21.3
		C9.5,48.4,0,58,0,69.7v204.2c0,11.7,9.5,21.3,21.3,21.3h21.6v20.7c0,11.7,9.5,21.3,21.3,21.3h48.1c4.1,0,7.5-3.4,7.5-7.5
		s-3.4-7.5-7.5-7.5H64.2c-3.5,0-6.3-2.8-6.3-6.3v-20.7h175.8c-1.8,8.7-2.7,17.8-2.8,27h-88.6c-4.1,0-7.5,3.4-7.5,7.5
		s3.4,7.5,7.5,7.5h89.3c7.1,70.9,67.1,126.4,139.9,126.4c29.7,0,58.1-9.2,82.1-26.5c3.4-2.4,4.1-7.1,1.7-10.5
		c-2.4-3.4-7.1-4.1-10.5-1.7c-21.5,15.5-46.8,23.6-73.3,23.6c-69.2,0-125.6-56.3-125.6-125.6c0-69.2,56.3-125.6,125.6-125.6
		c69.2,0,125.6,56.3,125.6,125.6c0,30.5-11.1,60-31.2,82.9c-2.7,3.1-2.4,7.9,0.7,10.6c3.1,2.7,7.9,2.4,10.6-0.7
		c22.6-25.6,35-58.6,35-92.8C512,291,501.2,261.4,483.1,237.8L483.1,237.8z M257.9,240.2H123.4c-37.7,0-68.4-30.7-68.4-68.4
		s30.7-68.4,68.4-68.4h26.8c4.1,0,7.5-3.4,7.5-7.5s-3.4-7.5-7.5-7.5h-26.8c-46,0-83.4,37.4-83.4,83.4s37.4,83.4,83.4,83.4h125
		c-4.4,7.9-8,16.3-10.8,25H21.3c-3.5,0-6.3-2.8-6.3-6.3V69.7c0-3.5,2.8-6.3,6.3-6.3H419c3.5,0,6.3,2.8,6.3,6.3v123.5
		c-8.3-3.5-17-6.1-26.1-8c0.7-4.4,1.1-8.9,1.1-13.4c0-46-37.4-83.4-83.4-83.4H180.2c-4.1,0-7.5,3.4-7.5,7.5s3.4,7.5,7.5,7.5h136.7
		c37.7,0,68.4,30.7,68.4,68.4c0,3.8-0.3,7.5-0.9,11.3c-4.2-0.4-8.5-0.6-12.9-0.6C324.9,182.5,283.5,205.2,257.9,240.2L257.9,240.2z
		 M440.2,200.5v-95.1h21.6c3.5,0,6.3,2.8,6.3,6.3v109.4C459.7,213.1,450.4,206.2,440.2,200.5L440.2,200.5z"/>
	<path class="st0" d="M230.1,164.3c-1-0.3-2-0.7-3-1.1V144c0,0,0.1,0,0.1,0.1c2.9,1.2,6.3,0.3,8.4-2.1c3.2-3.8,1.8-9.7-2.8-11.6
		c-1.8-0.7-3.7-1.4-5.7-1.9v-3.3c0-4.1-3.4-7.5-7.5-7.5s-7.5,3.4-7.5,7.5v3.5c-8.9,2.5-15,9.8-16.6,18.4c-1.5,8.1,1.1,15.9,6.9,20.4
		c2.6,2,5.6,3.8,9.7,5.7v26.6c-2.4-0.5-4.5-1.5-7.5-3.5c-3.7-2.4-8.8-1.1-10.8,3c-1.7,3.4-0.4,7.6,2.8,9.7
		c5.9,3.8,10.2,5.4,15.6,5.9v3.4c0,4.1,3.4,7.5,7.5,7.5s7.5-3.4,7.5-7.5v-4.1c11-3.1,18.1-12.6,19.7-22.1
		C248.9,179.8,242.2,168.6,230.1,164.3L230.1,164.3z M211.7,155.7c-1.3-1-1.9-3.4-1.4-5.9c0.1-0.7,0.6-2.5,1.9-4.1v10.3
		C212,156,211.8,155.9,211.7,155.7L211.7,155.7z M232.1,189.7c-0.5,3-2.2,6-4.9,8.1v-18.4C232.6,182.3,232.4,187.5,232.1,189.7z"/>
	<path class="st0" d="M328,164.3h-43.3c-4.1,0-7.5,3.4-7.5,7.5s3.4,7.5,7.5,7.5H328c4.1,0,7.5-3.4,7.5-7.5S332.1,164.3,328,164.3z"
		/>
	<path class="st0" d="M155.6,164.3h-43.3c-4.1,0-7.5,3.4-7.5,7.5s3.4,7.5,7.5,7.5h43.3c4.1,0,7.5-3.4,7.5-7.5
		S159.7,164.3,155.6,164.3z"/>
</g>
</svg>
