<?xml version="1.0" encoding="utf-8"?>
<!-- Generator: Adobe Illustrator 24.1.3, SVG Export Plug-In . SVG Version: 6.00 Build 0)  -->
<svg version="1.1" id="Capa_1" xmlns="http://www.w3.org/2000/svg" xmlns:xlink="http://www.w3.org/1999/xlink" x="0px" y="0px"
	 viewBox="0 0 512 512" style="enable-background:new 0 0 512 512;" xml:space="preserve">
<style type="text/css">
	.st0{fill:#072233;}
</style>
<g>
	<path class="st0" d="M448.7,57.6c0-10.6-8.6-19.2-19.2-19.2h-5.9c-10.6,0-19.2,8.6-19.2,19.2v4.4h-39.1c-10.2,0-18.8,7.2-21.1,16.7
		h-18.1c-7.5,0-13.8,5.2-15.6,12.1h-1.8C292.8,37.2,244,0,188.7,0C119.6,0,63.3,57.4,63.3,128c0,5.3,0.9,46.6,1.7,80.3
		c0.1,4.1,3.4,7.4,7.5,7.4c0.1,0,0.1,0,0.2,0c4.2-0.1,7.4-3.5,7.4-7.7c-1.1-47.5-1.7-75.9-1.7-79.9c0-62.3,49.5-112.9,110.4-112.9
		c47.1,0,88.9,30.8,104.2,75.7h-27.7c-15-29.1-44.3-47.2-76.5-47.2c-47.6,0-86.4,39.5-86.4,88c0,5.8,1.4,68.2,2.2,100.3l0,0.6
		c0,26.1,20.8,47.3,46.5,47.3c12,0,23.4-4.7,32.2-13.3c5.9-5.7,10.2-12.9,12.4-20.8c2-6.9,5.1-13.1,9.4-18.5
		c5.1-6.5,12-11.9,20-15.7c10.3-4.9,19.4-11.6,27.2-20.2c2.8-3.1,2.6-7.8-0.5-10.6c-3.1-2.8-7.8-2.6-10.6,0.5
		c-6.4,7.1-13.9,12.7-22.4,16.7c-10.1,4.8-18.9,11.7-25.4,20c-5.4,6.9-9.4,14.8-12,23.6c-1.5,5.3-4.5,10.3-8.5,14.2
		c-5.9,5.8-13.6,9-21.6,9c-17.3,0-31.4-14.5-31.4-32.3l0-0.7c0-2-0.1-4-0.1-6.1H131c8.8,0,17-4.4,21.8-11.7
		c4.9-7.3,5.7-16.6,2.2-24.7c-3.1-7.3-3.2-15.3-0.2-22.6c3.5-8.6,2.4-18.4-2.8-26.1c-5.2-7.7-13.9-12.3-23.2-12.3h-11.4
		c1.8-38.6,33.1-69.4,71.2-69.4c23.9,0,45.9,12.2,59.1,32.2h-11.8c-10,0-18.2,8.2-18.2,18.2V119c0,10,8.2,18.2,18.2,18.2h23.7
		c-0.5,6-1.6,11.9-3.5,17.6c-1.3,3.9,0.8,8.2,4.8,9.5c0.8,0.3,1.6,0.4,2.4,0.4c3.2,0,6.1-2,7.1-5.2c2.4-7.2,3.8-14.7,4.3-22.3h23.8
		c-3.1,38.1-25.4,72.7-58.6,90.6c-15,8.1-26.3,21-32,36.4c-9.6,26.2-34.4,43.8-61.6,43.8c-36.2,0-66.2-31.1-66.5-70.7
		c-0.4-3.9-3.7-6.9-7.7-6.8c-4.2,0.1-7.4,3.5-7.4,7.7c0.1,3.3,1.1,11.3,1.3,12.4c4.8,40.7,39,72.4,80.2,72.4
		c33.5,0,63.9-21.6,75.7-53.7c4.4-12,13.3-22.1,25-28.4c18.7-10.1,34.8-25,46.4-43.1c10.6-16.5,17.4-35.5,19.6-55.1
		c2.9,3.9,7.6,6.4,12.8,6.4h18.1c2.2,9.6,10.8,16.7,21.1,16.7h39.1v42c0,0,0,0,0,0l-7,3.8c-0.1,0-0.2,0.1-0.3,0.1
		c-11.8,6.9-19.4,19.9-19.4,33v230.6c0,20.5,15.6,36.5,35.5,36.5c19.2,0,35.5-15.3,35.5-33.4v-60.1c0-4.2-3.4-7.5-7.5-7.5
		s-7.5,3.4-7.5,7.5v60.1c0,8.7-8.7,18.4-20.4,18.4c-11.5,0-20.4-9.4-20.4-21.4v-82c0.2-0.2,0.4-0.3,0.6-0.5l40.3-40.3v35.7
		c0,4.2,3.4,7.5,7.5,7.5s7.5-3.4,7.5-7.5V196.8c0,0,0,0,0,0c0,0,0,0,0-0.1L448.7,57.6z M139.6,148.7c2.4,3.6,2.9,8,1.3,12.1
		c-4.5,11.1-4.3,23.2,0.3,34.1c1.5,3.5,1.1,7.3-1,10.5c-2.1,3.2-5.5,5-9.3,5h-11.9c-0.6-24.8-1.2-52.2-1.5-67.4h11.3
		C133.3,143,137.2,145.1,139.6,148.7L139.6,148.7z M232.9,119v-10.1c0-1.7,1.4-3.2,3.2-3.2H310v16.4h-73.9
		C234.3,122.2,232.9,120.8,232.9,119z M325.1,133.3v-3.5V98.3v-3.5c0-0.6,0.5-1,1-1h17.5v40.6h-17.5
		C325.5,134.3,325.1,133.8,325.1,133.3z M365.3,151c-3.6,0-6.6-3-6.6-6.6v-2.6V86.2v-2.6c0-3.6,3-6.6,6.6-6.6h39.1v74H365.3z
		 M419.4,158.5V69.4V57.6c0-2.3,1.9-4.2,4.2-4.2h5.9c2.3,0,4.2,1.9,4.2,4.2v134.8l-14.2,7.7L419.4,158.5z M404.6,225l29-15.6v67.1
		c-0.5,0.3-0.9,0.6-1.3,1l-39.6,39.6v-72.2C392.8,237.1,397.4,229.3,404.6,225L404.6,225z M432.4,332.7l-39.6,39.6v-33.8
		c0.2-0.2,0.4-0.3,0.6-0.5l40.3-40.3v34.1C433.2,331.9,432.8,332.3,432.4,332.7L432.4,332.7z"/>
</g>
</svg>
