<?xml version="1.0" encoding="utf-8"?>
<!-- Generator: Adobe Illustrator 24.1.3, SVG Export Plug-In . SVG Version: 6.00 Build 0)  -->
<svg version="1.1" id="Layer_1" xmlns="http://www.w3.org/2000/svg" xmlns:xlink="http://www.w3.org/1999/xlink" x="0px" y="0px"
	 viewBox="0 0 1280 1024" style="enable-background:new 0 0 1280 1024;" xml:space="preserve">
<style type="text/css">
	.st0{fill:#0e5a8e;}
</style>
<path class="st0" d="M642.79,671.32c-8.72,0.2-17.46-0.22-26.1-1.18c-33.45-3.73-66.27-15.74-92.74-36.53
	c-31.08-24.42-52.16-59.84-65.05-97.21c-16.25-47.13-19.62-98.37-11.04-147.4c4.31-24.65,11.64-48.78,21.88-71.62
	c5.12-11.41,10.96-22.49,17.51-33.14c6.53-10.61,13.62-18.62,22.47-27.23c6.86-6.69,14.42-12.66,22.51-17.79
	c6.53-4.14,16.05-7.36,21.17-1.57c3.55,4.01,2.62,10.51-0.5,14.86c-3.11,4.36-7.88,7.17-12.31,10.17
	c-36.33,24.66-55.35,68.08-65.16,110.89c-14.35,62.58-12.07,131.23,19.19,187.3s95.36,96,158.93,86.96
	c51.52-7.32,95.5-45.26,118.67-91.85c23.18-46.59,27.58-100.7,21.83-152.42c-3.66-32.89-11.42-65.77-27.43-94.74
	c-16.01-28.96-40.88-53.84-71.85-65.5c-30.97-11.66-68.14-8.65-94.34,11.57c-3.3,2.55-6.53,5.5-7.98,9.41
	c-2.9,7.79,2.05,16.06,6.34,23.17c16.73,27.71,26.38,59.65,27.78,91.99c0.86,19.9-1.32,40.12,3.01,59.56
	c1.72,7.75,5.63,16.36,13.36,18.14c10.62,2.44,18.71-9.45,21.99-19.84c8.73-27.62,7.98-57.22,7.15-86.18
	c-0.48-16.64-1.58-34.88-12.94-47.05c-3.8-4.07-8.57-7.22-11.91-11.67c-3.33-4.46-4.88-11.05-1.5-15.47
	c4.95-6.5,15.46-3.3,21.85,1.79c22.35,17.83,28.7,49.02,29.51,77.6c0.72,25.49-1.76,51.07-7.36,75.95
	c-4.73,21.02-15.2,44.82-36.35,48.9c-21,4.05-40.37-15.04-46.36-35.58s-2.89-42.46-3.65-63.83c-0.86-24.33-6.89-48.55-18.33-70.04
	c-9.8-18.4-23.92-39.11-15.31-58.09c3.14-6.92,8.95-12.24,15.04-16.78c21.56-16.09,48.59-24.71,75.48-24.09
	c37.86,0.88,73.99,19.91,99.92,47.5c25.93,27.59,42.31,63.13,51.53,99.86c15.15,60.34,11.57,125.24-10.1,183.56
	c-17.87,48.07-50.02,93.37-96.84,114.31C685.33,666.7,664.13,670.84,642.79,671.32z M650.06,457.42L650.06,457.42L650.06,457.42z"/>
<path class="st0" d="M865.85,772.9H398.38c-4.17,0-7.55-3.38-7.55-7.55V134.22c0-4.17,3.38-7.55,7.55-7.55h467.47
	c4.17,0,7.55,3.38,7.55,7.55v631.13C873.4,769.52,870.02,772.9,865.85,772.9z M405.93,757.79h452.36V141.77H405.93V757.79z"/>
<g>
	<path class="st0" d="M435.45,810.04c10.59,0,19.45,3.53,26.59,10.6s10.7,15.77,10.7,26.1c0,10.24-3.56,18.92-10.68,26.05
		c-7.12,7.13-15.8,10.7-26.04,10.7c-10.37,0-19.12-3.55-26.26-10.65c-7.13-7.1-10.7-15.69-10.7-25.76c0-6.72,1.63-12.95,4.88-18.68
		c3.25-5.74,7.68-10.23,13.29-13.48C422.85,811.66,428.92,810.04,435.45,810.04z M435.76,816.84c-5.17,0-10.08,1.35-14.71,4.04
		c-4.63,2.7-8.25,6.33-10.86,10.89c-2.6,4.57-3.9,9.66-3.9,15.27c0,8.31,2.88,15.33,8.64,21.05c5.76,5.73,12.71,8.59,20.83,8.59
		c5.43,0,10.45-1.32,15.07-3.95c4.62-2.63,8.22-6.23,10.81-10.8c2.59-4.57,3.88-9.64,3.88-15.22c0-5.55-1.29-10.57-3.88-15.06
		c-2.59-4.49-6.23-8.08-10.93-10.78C446.01,818.18,441.03,816.84,435.76,816.84z"/>
	<path class="st0" d="M491.48,810.8h6.66V830h10.55v5.75h-10.55v45.97h-6.66v-45.97h-9.08V830h9.08V810.8z"/>
	<path class="st0" d="M543.15,828.67c7.97,0,14.57,2.88,19.81,8.65c4.76,5.26,7.14,11.49,7.14,18.68c0,7.23-2.52,13.54-7.55,18.94
		c-5.03,5.4-11.5,8.1-19.4,8.1c-7.94,0-14.42-2.7-19.45-8.1c-5.03-5.4-7.55-11.72-7.55-18.94c0-7.16,2.38-13.37,7.14-18.63
		C528.53,831.57,535.15,828.67,543.15,828.67z M543.12,835.19c-5.53,0-10.29,2.04-14.26,6.13c-3.98,4.09-5.96,9.03-5.96,14.83
		c0,3.74,0.91,7.23,2.72,10.46c1.81,3.23,4.26,5.73,7.35,7.49c3.08,1.76,6.47,2.64,10.16,2.64c3.69,0,7.07-0.88,10.16-2.64
		c3.08-1.76,5.53-4.26,7.35-7.49c1.81-3.23,2.72-6.72,2.72-10.46c0-5.8-2-10.74-5.99-14.83
		C553.37,837.23,548.62,835.19,543.12,835.19z"/>
	<path class="st0" d="M581.41,810.04h6.66v71.68h-6.66V810.04z"/>
	<path class="st0" d="M626.38,828.67c7.97,0,14.57,2.88,19.81,8.65c4.76,5.26,7.14,11.49,7.14,18.68c0,7.23-2.52,13.54-7.55,18.94
		c-5.03,5.4-11.5,8.1-19.4,8.1c-7.94,0-14.42-2.7-19.45-8.1c-5.03-5.4-7.55-11.72-7.55-18.94c0-7.16,2.38-13.37,7.14-18.63
		C611.76,831.57,618.38,828.67,626.38,828.67z M626.36,835.19c-5.53,0-10.29,2.04-14.26,6.13s-5.96,9.03-5.96,14.83
		c0,3.74,0.91,7.23,2.72,10.46c1.81,3.23,4.26,5.73,7.35,7.49c3.08,1.76,6.47,2.64,10.16,2.64c3.69,0,7.08-0.88,10.16-2.64
		c3.08-1.76,5.53-4.26,7.35-7.49c1.81-3.23,2.72-6.72,2.72-10.46c0-5.8-2-10.74-5.99-14.83
		C636.61,837.23,631.86,835.19,626.36,835.19z M629.66,805.76h10.22l-14.02,14.64h-6.56L629.66,805.76z"/>
	<path class="st0" d="M710.24,830h6.66v41.21c0,7.26-0.63,12.57-1.9,15.92c-1.74,4.75-4.77,8.41-9.08,10.98
		c-4.31,2.57-9.49,3.85-15.54,3.85c-4.44,0-8.42-0.63-11.96-1.88c-3.53-1.26-6.41-2.94-8.63-5.05c-2.22-2.11-4.26-5.2-6.13-9.27
		h7.23c1.97,3.42,4.51,5.96,7.61,7.61c3.11,1.65,6.96,2.47,11.57,2.47c4.54,0,8.37-0.85,11.49-2.53c3.13-1.69,5.36-3.81,6.69-6.37
		c1.33-2.56,2-6.69,2-12.39v-2.66c-2.51,3.17-5.57,5.6-9.18,7.3c-3.62,1.7-7.46,2.54-11.52,2.54c-4.76,0-9.23-1.18-13.42-3.54
		c-4.19-2.36-7.42-5.54-9.71-9.53c-2.29-3.99-3.43-8.38-3.43-13.17s1.19-9.25,3.57-13.38c2.38-4.13,5.67-7.41,9.87-9.82
		c4.2-2.41,8.64-3.61,13.3-3.61c3.87,0,7.48,0.8,10.83,2.4c3.35,1.6,6.57,4.24,9.68,7.92V830z M690.61,835.09
		c-3.77,0-7.27,0.91-10.51,2.73c-3.23,1.82-5.77,4.34-7.61,7.56c-1.84,3.22-2.76,6.69-2.76,10.43c0,5.67,1.9,10.36,5.7,14.07
		s8.73,5.56,14.78,5.56c6.12,0,11.04-1.84,14.76-5.51c3.72-3.68,5.58-8.51,5.58-14.5c0-3.9-0.86-7.38-2.57-10.43
		c-1.71-3.06-4.14-5.47-7.27-7.25C697.59,835.98,694.22,835.09,690.61,835.09z"/>
	<path class="st0" d="M733.46,808.71c1.51,0,2.81,0.54,3.88,1.62c1.07,1.08,1.61,2.38,1.61,3.9c0,1.49-0.54,2.77-1.61,3.85
		s-2.37,1.62-3.88,1.62c-1.48,0-2.76-0.54-3.83-1.62c-1.07-1.08-1.61-2.36-1.61-3.85c0-1.52,0.54-2.82,1.61-3.9
		C730.7,809.25,731.98,808.71,733.46,808.71z M730.16,830h6.66v51.72h-6.66V830z"/>
	<path class="st0" d="M800.84,840.75l-5.28,3.28c-4.56-6.05-10.78-9.08-18.66-9.08c-6.3,0-11.53,2.03-15.69,6.08
		c-4.16,4.05-6.24,8.97-6.24,14.77c0,3.77,0.96,7.31,2.87,10.64c1.91,3.32,4.54,5.9,7.88,7.74c3.34,1.84,7.08,2.75,11.23,2.75
		c7.6,0,13.8-3.03,18.61-9.08l5.28,3.47c-2.47,3.72-5.79,6.61-9.96,8.66c-4.17,2.05-8.91,3.08-14.24,3.08
		c-8.18,0-14.96-2.6-20.35-7.8c-5.39-5.2-8.08-11.52-8.08-18.97c0-5.01,1.26-9.66,3.78-13.95c2.52-4.29,5.98-7.65,10.39-10.05
		c4.4-2.41,9.33-3.61,14.78-3.61c3.42,0,6.73,0.52,9.91,1.57c3.19,1.05,5.89,2.41,8.11,4.09S799.29,838.15,800.84,840.75z"/>
	<path class="st0" d="M865.16,830v51.72h-6.56v-8.89c-2.79,3.39-5.92,5.94-9.39,7.65c-3.47,1.71-7.26,2.57-11.38,2.57
		c-7.32,0-13.57-2.65-18.75-7.96c-5.18-5.31-7.77-11.76-7.77-19.37c0-7.45,2.61-13.82,7.84-19.11c5.23-5.29,11.52-7.94,18.87-7.94
		c4.25,0,8.09,0.9,11.53,2.71c3.44,1.81,6.46,4.52,9.05,8.13V830H865.16z M838.56,835.09c-3.7,0-7.12,0.91-10.25,2.73
		c-3.13,1.82-5.63,4.38-7.48,7.67c-1.85,3.29-2.78,6.77-2.78,10.45c0,3.64,0.93,7.12,2.8,10.44c1.87,3.32,4.38,5.91,7.53,7.76
		c3.15,1.85,6.53,2.78,10.14,2.78c3.64,0,7.09-0.92,10.35-2.75c3.26-1.84,5.77-4.32,7.53-7.46c1.76-3.13,2.64-6.66,2.64-10.59
		c0-5.98-1.97-10.98-5.91-15.01C849.17,837.1,844.32,835.09,838.56,835.09z"/>
</g>
</svg>
