<?xml version="1.0" encoding="utf-8"?>
<!-- Generator: Adobe Illustrator 24.1.3, SVG Export Plug-In . SVG Version: 6.00 Build 0)  -->
<svg version="1.1" id="Layer_1" xmlns="http://www.w3.org/2000/svg" xmlns:xlink="http://www.w3.org/1999/xlink" x="0px" y="0px"
	 viewBox="0 0 1280 456" style="enable-background:new 0 0 1280 456;" xml:space="preserve">
<style type="text/css">
	.st0{fill:#105282;}
</style>
<g>
	<path class="st0" d="M434.52,220.21c18.06,0,33.18,6.03,45.35,18.08c12.17,12.05,18.25,26.89,18.25,44.51
		c0,17.46-6.07,32.27-18.21,44.43c-12.14,12.16-26.95,18.24-44.41,18.24c-17.68,0-32.61-6.05-44.78-18.16
		c-12.17-12.11-18.25-26.75-18.25-43.94c0-11.46,2.77-22.08,8.32-31.86c5.54-9.78,13.1-17.44,22.67-22.98
		C413.02,222.99,423.38,220.21,434.52,220.21z M435.04,231.81c-8.82,0-17.19,2.3-25.09,6.9c-7.9,4.6-14.08,10.79-18.51,18.58
		c-4.44,7.79-6.66,16.47-6.66,26.04c0,14.17,4.91,26.14,14.74,35.9c9.82,9.76,21.67,14.65,35.53,14.65c9.26,0,17.82-2.24,25.7-6.73
		c7.88-4.49,14.02-10.63,18.43-18.42c4.41-7.79,6.62-16.44,6.62-25.96c0-9.47-2.21-18.03-6.62-25.68
		c-4.41-7.65-10.62-13.78-18.63-18.38C452.53,234.11,444.03,231.81,435.04,231.81z"/>
	<path class="st0" d="M530.06,221.51h11.35v32.75h18v9.81h-18v78.39h-11.35v-78.39h-15.48v-9.81h15.48V221.51z"/>
	<path class="st0" d="M618.18,251.99c13.59,0,24.85,4.92,33.79,14.75c8.12,8.97,12.18,19.59,12.18,31.86
		c0,12.32-4.29,23.09-12.88,32.31c-8.58,9.21-19.61,13.82-33.09,13.82c-13.53,0-24.59-4.61-33.17-13.82
		c-8.58-9.22-12.87-19.98-12.87-32.31c0-12.21,4.06-22.81,12.18-31.78C593.24,256.94,604.53,251.99,618.18,251.99z M618.14,263.1
		c-9.44,0-17.55,3.49-24.33,10.46c-6.78,6.97-10.17,15.4-10.17,25.29c0,6.38,1.55,12.32,4.64,17.84c3.09,5.51,7.27,9.77,12.53,12.77
		c5.26,3,11.04,4.5,17.33,4.5c6.29,0,12.07-1.5,17.33-4.5c5.26-3,9.44-7.26,12.53-12.77c3.09-5.51,4.64-11.46,4.64-17.84
		c0-9.89-3.4-18.32-10.21-25.29C635.61,266.59,627.52,263.1,618.14,263.1z"/>
	<path class="st0" d="M683.44,220.21h11.35v122.25h-11.35V220.21z"/>
	<path class="st0" d="M760.13,251.99c13.59,0,24.85,4.92,33.78,14.75c8.12,8.97,12.18,19.59,12.18,31.86
		c0,12.32-4.29,23.09-12.87,32.31c-8.58,9.21-19.61,13.82-33.09,13.82c-13.54,0-24.59-4.61-33.17-13.82
		c-8.58-9.22-12.87-19.98-12.87-32.31c0-12.21,4.06-22.81,12.18-31.78C735.19,256.94,746.48,251.99,760.13,251.99z M760.08,263.1
		c-9.43,0-17.54,3.49-24.32,10.46c-6.78,6.97-10.17,15.4-10.17,25.29c0,6.38,1.55,12.32,4.64,17.84c3.09,5.51,7.27,9.77,12.53,12.77
		c5.26,3,11.04,4.5,17.33,4.5c6.29,0,12.07-1.5,17.33-4.5c5.26-3,9.44-7.26,12.53-12.77c3.09-5.51,4.64-11.46,4.64-17.84
		c0-9.89-3.4-18.32-10.21-25.29C777.56,266.59,769.47,263.1,760.08,263.1z M765.72,212.92h17.43l-23.92,24.97h-11.19L765.72,212.92z
		"/>
	<path class="st0" d="M903.13,254.26h11.35v70.29c0,12.38-1.08,21.43-3.24,27.16c-2.97,8.11-8.13,14.35-15.48,18.73
		c-7.35,4.38-16.19,6.57-26.51,6.57c-7.57,0-14.36-1.07-20.39-3.21c-6.02-2.14-10.93-5.02-14.71-8.62
		c-3.78-3.61-7.27-8.88-10.46-15.81h12.32c3.35,5.84,7.68,10.16,12.98,12.97c5.3,2.81,11.88,4.22,19.72,4.22
		c7.74,0,14.27-1.44,19.6-4.32c5.33-2.88,9.13-6.51,11.41-10.87c2.27-4.36,3.41-11.41,3.41-21.13v-4.54
		c-4.27,5.4-9.5,9.55-15.66,12.44c-6.17,2.89-12.71,4.34-19.64,4.34c-8.12,0-15.74-2.01-22.88-6.04
		c-7.14-4.03-12.66-9.45-16.55-16.26c-3.9-6.81-5.84-14.3-5.84-22.46c0-8.16,2.03-15.77,6.09-22.82
		c4.06-7.05,9.67-12.63,16.84-16.74c7.17-4.11,14.73-6.16,22.68-6.16c6.6,0,12.76,1.36,18.46,4.09c5.71,2.73,11.21,7.23,16.51,13.5
		V254.26z M869.65,262.94c-6.43,0-12.4,1.55-17.92,4.66c-5.51,3.11-9.84,7.41-12.97,12.89c-3.13,5.48-4.7,11.42-4.7,17.79
		c0,9.68,3.24,17.67,9.73,24c6.49,6.32,14.89,9.49,25.21,9.49c10.43,0,18.82-3.13,25.17-9.4c6.35-6.27,9.52-14.51,9.52-24.73
		c0-6.65-1.46-12.58-4.38-17.79c-2.92-5.22-7.05-9.34-12.4-12.36C881.57,264.45,875.81,262.94,869.65,262.94z"/>
	<path class="st0" d="M942.73,217.94c2.58,0,4.79,0.92,6.62,2.76c1.83,1.84,2.75,4.05,2.75,6.65c0,2.54-0.92,4.73-2.75,6.57
		c-1.83,1.84-4.04,2.76-6.62,2.76c-2.53,0-4.71-0.92-6.54-2.76c-1.83-1.84-2.74-4.03-2.74-6.57c0-2.59,0.91-4.81,2.74-6.65
		C938.03,218.86,940.21,217.94,942.73,217.94z M937.1,254.26h11.35v88.2H937.1V254.26z"/>
	<path class="st0" d="M1057.65,272.58l-9,5.59c-7.77-10.32-18.38-15.48-31.82-15.48c-10.74,0-19.66,3.46-26.76,10.37
		c-7.1,6.91-10.65,15.31-10.65,25.18c0,6.43,1.63,12.47,4.9,18.14c3.27,5.67,7.75,10.07,13.44,13.2s12.08,4.7,19.15,4.7
		c12.96,0,23.54-5.16,31.74-15.48l9,5.92c-4.22,6.35-9.88,11.27-16.99,14.77c-7.11,3.5-15.2,5.25-24.28,5.25
		c-13.94,0-25.51-4.43-34.7-13.3c-9.19-8.86-13.78-19.65-13.78-32.35c0-8.54,2.15-16.47,6.44-23.79c4.3-7.32,10.2-13.04,17.71-17.15
		c7.51-4.11,15.92-6.16,25.21-6.16c5.84,0,11.47,0.89,16.9,2.68c5.43,1.78,10.04,4.11,13.82,6.97
		C1051.79,264.51,1055,268.15,1057.65,272.58z"/>
	<path class="st0" d="M1167.33,254.26v88.2h-11.19v-15.16c-4.76,5.78-10.09,10.13-16.01,13.05c-5.92,2.92-12.39,4.38-19.41,4.38
		c-12.48,0-23.14-4.53-31.98-13.58c-8.83-9.05-13.25-20.06-13.25-33.03c0-12.7,4.46-23.56,13.38-32.59
		c8.92-9.03,19.65-13.54,32.18-13.54c7.24,0,13.8,1.54,19.66,4.62c5.86,3.08,11.01,7.7,15.44,13.86v-16.21H1167.33z M1121.97,262.94
		c-6.31,0-12.15,1.55-17.49,4.66c-5.34,3.1-9.6,7.46-12.76,13.08c-3.16,5.61-4.74,11.55-4.74,17.82c0,6.21,1.59,12.15,4.78,17.81
		c3.18,5.67,7.46,10.08,12.83,13.24c5.37,3.16,11.13,4.74,17.29,4.74c6.21,0,12.09-1.57,17.65-4.7s9.84-7.37,12.83-12.71
		c3-5.34,4.5-11.36,4.5-18.06c0-10.2-3.36-18.73-10.08-25.59C1140.07,266.37,1131.8,262.94,1121.97,262.94z"/>
</g>
<path class="st0" d="M226.81,336.01c-3.81,0.09-7.62-0.09-11.4-0.52c-14.61-1.63-28.94-6.88-40.5-15.96
	c-13.58-10.67-22.78-26.13-28.41-42.46c-7.1-20.58-8.57-42.97-4.82-64.38c1.88-10.77,5.08-21.31,9.55-31.28
	c2.23-4.98,4.79-9.82,7.65-14.48c2.85-4.64,5.95-8.13,9.81-11.9c3-2.92,6.3-5.53,9.83-7.77c2.85-1.81,7.01-3.21,9.25-0.68
	c1.55,1.75,1.14,4.59-0.22,6.49c-1.36,1.9-3.44,3.13-5.38,4.44c-15.87,10.77-24.18,29.74-28.46,48.43
	c-6.27,27.33-5.27,57.31,8.38,81.81c13.65,24.49,41.65,41.93,69.41,37.98c22.5-3.2,41.71-19.77,51.83-40.12s12.05-43.98,9.53-66.57
	c-1.6-14.36-4.99-28.73-11.98-41.38c-6.99-12.65-17.85-23.51-31.38-28.61c-13.53-5.09-29.76-3.78-41.2,5.05
	c-1.44,1.11-2.85,2.4-3.49,4.11c-1.27,3.4,0.89,7.01,2.77,10.12c7.31,12.1,11.52,26.05,12.13,40.18c0.38,8.69-0.57,17.52,1.32,26.01
	c0.75,3.38,2.46,7.14,5.84,7.92c4.64,1.07,8.17-4.13,9.6-8.67c3.81-12.07,3.49-24.99,3.12-37.64c-0.21-7.27-0.69-15.23-5.65-20.55
	c-1.66-1.78-3.74-3.15-5.2-5.1c-1.46-1.95-2.13-4.82-0.66-6.76c2.16-2.84,6.75-1.44,9.54,0.78c9.76,7.79,12.54,21.41,12.89,33.89
	c0.31,11.13-0.77,22.31-3.22,33.17c-2.07,9.18-6.64,19.58-15.88,21.36c-9.17,1.77-17.63-6.57-20.25-15.54s-1.26-18.54-1.59-27.88
	c-0.38-10.62-3.01-21.21-8.01-30.59c-4.28-8.03-10.45-17.08-6.69-25.37c1.37-3.02,3.91-5.35,6.57-7.33
	c9.42-7.03,21.22-10.79,32.97-10.52c16.53,0.39,32.31,8.7,43.64,20.75c11.33,12.05,18.48,27.57,22.51,43.61
	c6.62,26.35,5.06,54.7-4.41,80.17c-7.81,21-21.85,40.78-42.29,49.93C245.39,333.99,236.13,335.8,226.81,336.01z M229.99,242.58
	L229.99,242.58L229.99,242.58z"/>
<path class="st0" d="M325.43,377H121.25c-1.82,0-3.3-1.48-3.3-3.3V98.05c0-1.82,1.48-3.3,3.3-3.3h204.17c1.82,0,3.3,1.48,3.3,3.3
	V373.7C328.73,375.52,327.25,377,325.43,377z M124.55,370.4h197.58V101.35H124.55V370.4z"/>
</svg>
